<svg fill="none" viewBox="0 0 64 64" xmlns="http://www.w3.org/2000/svg">
  <rect fill="transparent" height="56" rx="16" width="56" x="4" y="4" />
  <path d="M12 24.5 32 11.5l20 13" stroke="#1e40af" stroke-linecap="round" stroke-linejoin="round" stroke-width="4" />
  <path d="M16 25v28h32V25L32 15.5 16 25Z" fill="#1d4ed8" />
  <path d="M20.5 27.5 32 20.75l11.5 6.75V48h-23V27.5Z" fill="#2563eb" />
  <path d="M23 31h17M23 37.5h17M23 44h17" stroke="#dbeafe" stroke-linecap="round" stroke-width="3" />
  <path d="M37 39v-2.7a3 3 0 0 1 6 0V39" stroke="#eff6ff" stroke-linecap="round" stroke-width="2.5" />
  <rect fill="#eff6ff" height="8.5" rx="2" width="10" x="35" y="38" />
  <circle cx="40" cy="42" fill="#1d4ed8" r="1.1" />
  <path d="M40 43v2" stroke="#1d4ed8" stroke-linecap="round" stroke-width="1.4" />
</svg>
